<svg width="65" height="65" viewBox="0 0 65 65" fill="none" xmlns="http://www.w3.org/2000/svg">
<g clip-path="url(#clip0_4_38)">
<path d="M38.9998 10.8328V8.66615V10.8328ZM25.9998 10.8329V12.9996V10.8329ZM55.7076 51.6629L54.1888 50.1176L53.3052 50.9864L53.6055 52.1881L55.7076 51.6629ZM58.5 62.8329L57.9748 64.935C58.7132 65.1196 59.4941 64.9029 60.0323 64.3647C60.5705 63.827 60.7867 63.0457 60.6021 62.3073L58.5 62.8329ZM41.1669 58.5L39.6348 56.9677L36.9288 59.6739L40.6414 60.6017L41.1669 58.5ZM41.2742 58.3925L42.8063 59.9244C43.4525 59.2783 43.6237 58.2963 43.2346 57.47C42.8455 56.6432 41.9796 56.1492 41.07 56.2354L41.2742 58.3925ZM2.16667 34.6661H1.01937e-10H2.16667ZM30.3333 0V10.8333H34.6667V0H30.3333ZM38.9998 8.66615L25.9997 8.66623L25.9998 12.9996L38.9999 12.9995L38.9998 8.66615ZM65 34.6661C65 20.3066 53.3594 8.66602 38.9998 8.66615L38.9999 12.9995C50.9661 12.9993 60.6667 22.6999 60.6667 34.6661H65ZM57.2264 53.2077C62.0221 48.4935 65 41.9256 65 34.6661H60.6667C60.6667 40.7165 58.1897 46.1842 54.1888 50.1176L57.2264 53.2077ZM60.6021 62.3073L57.8097 51.1372L53.6055 52.1881L56.3983 63.3585L60.6021 62.3073ZM40.6414 60.6017L57.9748 64.935L59.0256 60.7308L41.6923 56.3979L40.6414 60.6017ZM39.7422 56.8603L39.6348 56.9677L42.6989 60.0318L42.8063 59.9244L39.7422 56.8603ZM39 60.6662C39.8354 60.6662 40.6621 60.6268 41.4784 60.5497L41.07 56.2354C40.3893 56.3 39.6988 56.3329 39 56.3329V60.6662ZM26 60.6662H39V56.3329H26V60.6662ZM1.01937e-10 34.6661C-3.97761e-05 49.0256 11.6405 60.6662 26 60.6662V56.3329C14.0338 56.3329 4.3333 46.6323 4.33333 34.6661H1.01937e-10ZM25.9997 8.66623C11.6405 8.66636 3.97763e-05 20.3069 1.01937e-10 34.6661H4.33333C4.33338 22.7001 14.0337 12.9997 25.9998 12.9996L25.9997 8.66623ZM32.5 34.6667C28.9101 34.6667 26 31.7565 26 28.1667H21.6667C21.6667 34.1497 26.5169 39 32.5 39V34.6667ZM39 28.1667C39 31.7565 36.0899 34.6667 32.5 34.6667V39C38.4831 39 43.3333 34.1497 43.3333 28.1667H39ZM32.5 21.6667C36.0899 21.6667 39 24.5768 39 28.1667H43.3333C43.3333 22.1836 38.4831 17.3333 32.5 17.3333V21.6667ZM32.5 17.3333C26.5169 17.3333 21.6667 22.1836 21.6667 28.1667H26C26 24.5768 28.9101 21.6667 32.5 21.6667V17.3333ZM32.5 52C37.1093 52 41.3504 50.398 44.6884 47.7221L41.978 44.3413C39.3811 46.423 36.0887 47.6667 32.5 47.6667V52ZM20.3115 47.7221C23.6495 50.398 27.8906 52 32.5 52V47.6667C28.9111 47.6667 25.6188 46.423 23.0218 44.3413L20.3115 47.7221Z" fill="black"/>
</g>
<defs>
<clipPath id="clip0_4_38">
<rect width="65" height="65" fill="white"/>
</clipPath>
</defs>
</svg>
