<svg width="65" height="65" viewBox="0 0 65 65" fill="none" xmlns="http://www.w3.org/2000/svg">
<path d="M30.3266 6.09375H10.593C8.59162 6.09375 6.67224 6.88878 5.25708 8.30395C3.84191 9.71911 3.04688 11.6385 3.04688 13.6398V54.407C3.04688 56.4084 3.84191 58.3277 5.25708 59.7429C6.67224 61.1581 8.59162 61.9531 10.593 61.9531H30.3266C32.327 61.9505 34.2449 61.1545 35.6595 59.74C37.0741 58.3254 37.87 56.4075 37.8727 54.407V13.6398C37.87 11.6394 37.0741 9.7215 35.6595 8.30692C34.2449 6.89234 32.327 6.09644 30.3266 6.09375ZM10.593 8.125H30.3266C31.6117 8.12669 32.856 8.57718 33.8444 9.39865C34.8327 10.2201 35.5032 11.361 35.7398 12.6242H5.17969C5.41637 11.361 6.0868 10.2201 7.07517 9.39865C8.06354 8.57718 9.30779 8.12669 10.593 8.125ZM5.07812 14.6555H35.8414V50.2023H5.07812V14.6555ZM30.3266 59.9219H10.593C9.13117 59.9192 7.73 59.3373 6.69635 58.3037C5.6627 57.27 5.08081 55.8688 5.07812 54.407V52.2336H35.8414V54.407C35.8388 55.8688 35.2568 57.27 34.2232 58.3037C33.1895 59.3373 31.7884 59.9192 30.3266 59.9219Z" fill="black"/>
<path d="M20.4547 53.5945C19.9204 53.5945 19.398 53.753 18.9538 54.0498C18.5096 54.3467 18.1632 54.7686 17.9588 55.2623C17.7543 55.7559 17.7008 56.2991 17.805 56.8232C17.9093 57.3472 18.1666 57.8286 18.5444 58.2064C18.9222 58.5842 19.4036 58.8416 19.9277 58.9458C20.4517 59.05 20.9949 58.9965 21.4886 58.792C21.9822 58.5875 22.4041 58.2413 22.7009 57.797C22.9978 57.3527 23.1562 56.8304 23.1562 56.2961C23.1536 55.5805 22.8681 54.8948 22.362 54.3887C21.8559 53.8827 21.1704 53.5973 20.4547 53.5945ZM20.4547 56.9664C20.277 56.9664 20.1064 56.8958 19.9807 56.7701C19.855 56.6444 19.7844 56.4739 19.7844 56.2961C19.7844 56.1184 19.855 55.9478 19.9807 55.8221C20.1064 55.6965 20.277 55.6258 20.4547 55.6258C20.6325 55.6258 20.8029 55.6965 20.9287 55.8221C21.0544 55.9478 21.125 56.1184 21.125 56.2961C21.125 56.4739 21.0544 56.6444 20.9287 56.7701C20.8029 56.8958 20.6325 56.9664 20.4547 56.9664Z" fill="black"/>
<path d="M43.8242 3.04688C43.5549 3.04688 43.2965 3.15388 43.1061 3.34434C42.9155 3.53481 42.8086 3.79314 42.8086 4.0625C42.8086 4.33186 42.9155 4.59019 43.1061 4.78066C43.2965 4.97112 43.5549 5.07812 43.8242 5.07812C48.1018 5.09693 52.1977 6.81011 55.2149 9.8425C58.2321 12.8749 59.9246 16.9793 59.9219 21.257C59.9219 21.5264 60.0288 21.7848 60.2194 21.9752C60.4098 22.1656 60.6682 22.2727 60.9375 22.2727C61.2068 22.2727 61.4652 22.1656 61.6556 21.9752C61.8461 21.7848 61.9531 21.5264 61.9531 21.257C61.9585 16.4398 60.0529 11.8171 56.6542 8.40324C53.2555 4.98934 48.6414 3.06301 43.8242 3.04688Z" fill="black"/>
<path d="M43.8242 7.85076C43.5549 7.85076 43.2965 7.95777 43.1061 8.14823C42.9155 8.3387 42.8086 8.59702 42.8086 8.86639C42.8086 9.13575 42.9155 9.39407 43.1061 9.58454C43.2965 9.77501 43.5549 9.88201 43.8242 9.88201C46.8286 9.89813 49.7042 11.1043 51.8209 13.2364C53.9378 15.3684 55.1234 18.2526 55.118 21.257C55.118 21.5264 55.2249 21.7848 55.4154 21.9752C55.6059 22.1656 55.8643 22.2727 56.1336 22.2727C56.4029 22.2727 56.6613 22.1656 56.8517 21.9752C57.0422 21.7848 57.1492 21.5264 57.1492 21.257C57.1546 17.7138 55.7551 14.3131 53.2573 11.8C50.7595 9.28709 47.3673 7.86689 43.8242 7.85076Z" fill="black"/>
<path d="M43.8242 12.6648C43.5549 12.6648 43.2965 12.7718 43.1061 12.9623C42.9155 13.1527 42.8086 13.4111 42.8086 13.6805C42.8086 13.9498 42.9155 14.2081 43.1061 14.3986C43.2965 14.589 43.5549 14.6961 43.8242 14.6961C45.5527 14.7095 47.2053 15.4076 48.4199 16.6375C49.6345 17.8673 50.312 19.5285 50.3039 21.257C50.3039 21.5264 50.411 21.7846 50.6014 21.9752C50.7918 22.1656 51.0502 22.2727 51.3195 22.2727C51.5889 22.2727 51.8472 22.1656 52.0377 21.9752C52.2281 21.7846 52.3352 21.5264 52.3352 21.257C52.3405 18.9906 51.4482 16.8143 49.8533 15.2041C48.2583 13.5939 46.0906 12.6809 43.8242 12.6648Z" fill="black"/>
<path d="M43.7938 17.4687C43.052 17.4667 42.3265 17.6848 41.7089 18.0954C41.0913 18.5059 40.6094 19.0905 40.3241 19.7751C40.0389 20.4598 39.9632 21.2136 40.1067 21.9413C40.2501 22.6689 40.6063 23.3376 41.13 23.8627C41.6537 24.3879 42.3215 24.7458 43.0487 24.8912C43.776 25.0367 44.53 24.963 45.2154 24.6797C45.9008 24.3963 46.4867 23.916 46.8989 23.2996C47.3112 22.683 47.5313 21.958 47.5313 21.2164C47.5313 20.2241 47.1378 19.2725 46.4371 18.57C45.7365 17.8674 44.7859 17.4714 43.7938 17.4687ZM43.7938 22.9328C43.4538 22.9347 43.121 22.8358 42.8374 22.6484C42.5538 22.4611 42.3323 22.1937 42.2007 21.8803C42.0693 21.5668 42.0339 21.2214 42.0989 20.8877C42.164 20.5541 42.3267 20.2474 42.5663 20.0063C42.806 19.7653 43.1118 19.6007 43.445 19.5337C43.7782 19.4667 44.1238 19.5001 44.4381 19.6297C44.7523 19.7593 45.0209 19.9793 45.21 20.2617C45.3991 20.5443 45.5 20.8765 45.5 21.2164C45.5 21.6699 45.3205 22.1049 45.0008 22.4265C44.6812 22.7481 44.2472 22.9301 43.7938 22.9328Z" fill="black"/>
</svg>
