<svg width="65" height="65" viewBox="0 0 65 65" fill="none" xmlns="http://www.w3.org/2000/svg">
<path d="M65 17.1086H57.3098C55.1547 12.9741 52.4013 9.65199 49.0987 7.21805C44.5659 3.8774 38.9812 2.18359 32.5 2.18359C26.0188 2.18359 20.4341 3.8774 15.9013 7.21805C12.5986 9.65199 9.84534 12.9742 7.69019 17.1086H0V44.9207H1.98364C1.93223 52.0809 2.66982 57.2671 2.70397 57.5035L2.96689 59.3192H22.4499C25.5519 61.618 28.9685 62.8165 32.4997 62.8165C36.0309 62.8165 39.4478 61.618 42.5497 59.3192H62.0326L62.2955 57.5035C62.3297 57.2671 63.0675 52.081 63.0158 44.9207H65V17.1086ZM18.4162 10.6304C22.205 7.83834 26.9434 6.42268 32.5 6.42268C38.0566 6.42268 42.795 7.83847 46.5838 10.6304C48.8304 12.2861 50.7896 14.4563 52.4382 17.1085H12.5618C14.2104 14.4564 16.1696 12.2863 18.4162 10.6304ZM6.68802 55.0799C6.47804 53.0103 6.19176 49.337 6.22312 44.9207H12.4822C13.8665 48.7565 15.7937 52.2562 18.0791 55.0799H6.68802ZM32.5 58.5773C28.0065 58.5773 24.5442 55.8865 22.4311 53.6293C20.2786 51.3302 18.4184 48.317 17.0247 44.9207H26.9934L32.5 39.024L38.0066 44.9206H47.9755C46.5818 48.317 44.7213 51.3303 42.5688 53.6294C40.4555 55.8867 36.9935 58.5773 32.5 58.5773ZM58.312 55.08H46.9209C49.2061 52.2563 51.1335 48.7566 52.5178 44.9208H58.7768C58.8082 49.3373 58.5217 53.0108 58.312 55.08ZM60.7609 40.6815H39.8479L32.5 32.8129L25.1521 40.6815H4.23909V21.3477H60.7608V40.6815H60.7609Z" fill="black"/>
<path d="M38.4051 46.8127H26.5963V51.0518H38.4051V46.8127Z" fill="black"/>
</svg>
